<svg viewBox="0 0 1000 1000" xmlns="http://www.w3.org/2000/svg" role="img" aria-label="aviator sunglasses">

  <defs>
    <radialGradient id="bg-aviator" cx="50%" cy="34%" r="80%">
      <stop offset="0%" stop-color="#2c2c30"/>
      <stop offset="42%" stop-color="#161618"/>
      <stop offset="100%" stop-color="#070708"/>
    </radialGradient>
    <radialGradient id="spot-aviator" cx="50%" cy="22%" r="42%">
      <stop offset="0%" stop-color="#ffffff" stop-opacity="0.10"/>
      <stop offset="100%" stop-color="#ffffff" stop-opacity="0"/>
    </radialGradient>
    <linearGradient id="chrome-aviator" x1="0" y1="0" x2="0" y2="1">
      <stop offset="0%" stop-color="#ffffff"/>
      <stop offset="20%" stop-color="#d6d9dd"/>
      <stop offset="40%" stop-color="#83868c"/>
      <stop offset="51%" stop-color="#42444a"/>
      <stop offset="62%" stop-color="#a3a6ac"/>
      <stop offset="80%" stop-color="#eef0f3"/>
      <stop offset="100%" stop-color="#75777c"/>
    </linearGradient>
    <linearGradient id="rim-aviator" x1="0" y1="0" x2="0" y2="1">
      <stop offset="0%" stop-color="#ffffff" stop-opacity="0.9"/>
      <stop offset="100%" stop-color="#ffffff" stop-opacity="0"/>
    </linearGradient>
    <linearGradient id="lens-aviator" x1="0.1" y1="0" x2="0.9" y2="1">
      <stop offset="0%" stop-color="#42474f"/>
      <stop offset="44%" stop-color="#16181c"/>
      <stop offset="100%" stop-color="#040405"/>
    </linearGradient>
    <linearGradient id="sheen-aviator" x1="0" y1="0" x2="1" y2="1">
      <stop offset="0%" stop-color="#ffffff" stop-opacity="0.55"/>
      <stop offset="32%" stop-color="#ffffff" stop-opacity="0.06"/>
      <stop offset="100%" stop-color="#ffffff" stop-opacity="0"/>
    </linearGradient>
    <linearGradient id="fade-aviator" x1="0" y1="0" x2="0" y2="1">
      <stop offset="0%" stop-color="#0a0a0b" stop-opacity="0"/>
      <stop offset="78%" stop-color="#0a0a0b" stop-opacity="0.92"/>
      <stop offset="100%" stop-color="#0a0a0b" stop-opacity="1"/>
    </linearGradient>
    <filter id="soft-aviator" x="-40%" y="-40%" width="180%" height="180%"><feGaussianBlur stdDeviation="11"/></filter>
  </defs>
  <rect width="1000" height="1000" fill="url(#bg-aviator)"/>
  <rect width="1000" height="1000" fill="url(#spot-aviator)"/>
  <ellipse cx="500" cy="738" rx="360" ry="34" fill="#000" opacity="0.6" filter="url(#soft-aviator)"/>
  <g transform="translate(500,470) scale(1.2) translate(-500,-500)"><path d="M463,410.5 Q500,376.5 537,410.5" fill="none" stroke="url(#chrome-aviator)" stroke-width="15" stroke-linecap="round"/>
    <clipPath id="clip-aviator-0"><path d="M213,392.5 H451 Q477,392.5 477,422.5 Q471,567.5 350,607.5 Q332,615.5 310,607.5 Q193,567.5 187,422.5 Q187,392.5 213,392.5 Z"/></clipPath>
    <path d="M213,392.5 H451 Q477,392.5 477,422.5 Q471,567.5 350,607.5 Q332,615.5 310,607.5 Q193,567.5 187,422.5 Q187,392.5 213,392.5 Z" fill="url(#lens-aviator)"/>
    <g clip-path="url(#clip-aviator-0)">
      <ellipse cx="0" cy="0" rx="300" ry="150" fill="#ffffff" opacity="0.13" transform="translate(330,330) rotate(-22)"/>
      <ellipse cx="0" cy="0" rx="120" ry="46" fill="#ffffff" opacity="0.16" transform="translate(420,560) rotate(-22)"/>
      <rect x="0" y="0" width="1000" height="1000" fill="url(#sheen-aviator)"/>
    </g>
    <path d="M213,392.5 H451 Q477,392.5 477,422.5 Q471,567.5 350,607.5 Q332,615.5 310,607.5 Q193,567.5 187,422.5 Q187,392.5 213,392.5 Z" fill="none" stroke="url(#chrome-aviator)" stroke-width="14"/>
    <path d="M213,392.5 H451 Q477,392.5 477,422.5 Q471,567.5 350,607.5 Q332,615.5 310,607.5 Q193,567.5 187,422.5 Q187,392.5 213,392.5 Z" fill="none" stroke="#000000" stroke-opacity="0.4" stroke-width="2.5"/>
    <clipPath id="clip-aviator-1"><path d="M549,392.5 H787 Q813,392.5 813,422.5 Q807,567.5 686,607.5 Q668,615.5 646,607.5 Q529,567.5 523,422.5 Q523,392.5 549,392.5 Z"/></clipPath>
    <path d="M549,392.5 H787 Q813,392.5 813,422.5 Q807,567.5 686,607.5 Q668,615.5 646,607.5 Q529,567.5 523,422.5 Q523,392.5 549,392.5 Z" fill="url(#lens-aviator)"/>
    <g clip-path="url(#clip-aviator-1)">
      <ellipse cx="0" cy="0" rx="300" ry="150" fill="#ffffff" opacity="0.13" transform="translate(330,330) rotate(-22)"/>
      <ellipse cx="0" cy="0" rx="120" ry="46" fill="#ffffff" opacity="0.16" transform="translate(420,560) rotate(-22)"/>
      <rect x="0" y="0" width="1000" height="1000" fill="url(#sheen-aviator)"/>
    </g>
    <path d="M549,392.5 H787 Q813,392.5 813,422.5 Q807,567.5 686,607.5 Q668,615.5 646,607.5 Q529,567.5 523,422.5 Q523,392.5 549,392.5 Z" fill="none" stroke="url(#chrome-aviator)" stroke-width="14"/>
    <path d="M549,392.5 H787 Q813,392.5 813,422.5 Q807,567.5 686,607.5 Q668,615.5 646,607.5 Q529,567.5 523,422.5 Q523,392.5 549,392.5 Z" fill="none" stroke="#000000" stroke-opacity="0.4" stroke-width="2.5"/><path d="M195,418.5 Q150,388.5 120,352.5" fill="none" stroke="url(#chrome-aviator)" stroke-width="16" stroke-linecap="round"/><path d="M805,418.5 Q850,388.5 880,352.5" fill="none" stroke="url(#chrome-aviator)" stroke-width="16" stroke-linecap="round"/></g>
  <g transform="translate(0,1456) scale(1,-1)" opacity="0.16"><g transform="translate(500,470) scale(1.2) translate(-500,-500)"><path d="M463,410.5 Q500,376.5 537,410.5" fill="none" stroke="url(#chrome-aviator)" stroke-width="15" stroke-linecap="round"/>
    <clipPath id="clip-aviator-0"><path d="M213,392.5 H451 Q477,392.5 477,422.5 Q471,567.5 350,607.5 Q332,615.5 310,607.5 Q193,567.5 187,422.5 Q187,392.5 213,392.5 Z"/></clipPath>
    <path d="M213,392.5 H451 Q477,392.5 477,422.5 Q471,567.5 350,607.5 Q332,615.5 310,607.5 Q193,567.5 187,422.5 Q187,392.5 213,392.5 Z" fill="url(#lens-aviator)"/>
    <g clip-path="url(#clip-aviator-0)">
      <ellipse cx="0" cy="0" rx="300" ry="150" fill="#ffffff" opacity="0.13" transform="translate(330,330) rotate(-22)"/>
      <ellipse cx="0" cy="0" rx="120" ry="46" fill="#ffffff" opacity="0.16" transform="translate(420,560) rotate(-22)"/>
      <rect x="0" y="0" width="1000" height="1000" fill="url(#sheen-aviator)"/>
    </g>
    <path d="M213,392.5 H451 Q477,392.5 477,422.5 Q471,567.5 350,607.5 Q332,615.5 310,607.5 Q193,567.5 187,422.5 Q187,392.5 213,392.5 Z" fill="none" stroke="url(#chrome-aviator)" stroke-width="14"/>
    <path d="M213,392.5 H451 Q477,392.5 477,422.5 Q471,567.5 350,607.5 Q332,615.5 310,607.5 Q193,567.5 187,422.5 Q187,392.5 213,392.5 Z" fill="none" stroke="#000000" stroke-opacity="0.4" stroke-width="2.5"/>
    <clipPath id="clip-aviator-1"><path d="M549,392.5 H787 Q813,392.5 813,422.5 Q807,567.5 686,607.5 Q668,615.5 646,607.5 Q529,567.5 523,422.5 Q523,392.5 549,392.5 Z"/></clipPath>
    <path d="M549,392.5 H787 Q813,392.5 813,422.5 Q807,567.5 686,607.5 Q668,615.5 646,607.5 Q529,567.5 523,422.5 Q523,392.5 549,392.5 Z" fill="url(#lens-aviator)"/>
    <g clip-path="url(#clip-aviator-1)">
      <ellipse cx="0" cy="0" rx="300" ry="150" fill="#ffffff" opacity="0.13" transform="translate(330,330) rotate(-22)"/>
      <ellipse cx="0" cy="0" rx="120" ry="46" fill="#ffffff" opacity="0.16" transform="translate(420,560) rotate(-22)"/>
      <rect x="0" y="0" width="1000" height="1000" fill="url(#sheen-aviator)"/>
    </g>
    <path d="M549,392.5 H787 Q813,392.5 813,422.5 Q807,567.5 686,607.5 Q668,615.5 646,607.5 Q529,567.5 523,422.5 Q523,392.5 549,392.5 Z" fill="none" stroke="url(#chrome-aviator)" stroke-width="14"/>
    <path d="M549,392.5 H787 Q813,392.5 813,422.5 Q807,567.5 686,607.5 Q668,615.5 646,607.5 Q529,567.5 523,422.5 Q523,392.5 549,392.5 Z" fill="none" stroke="#000000" stroke-opacity="0.4" stroke-width="2.5"/><path d="M195,418.5 Q150,388.5 120,352.5" fill="none" stroke="url(#chrome-aviator)" stroke-width="16" stroke-linecap="round"/><path d="M805,418.5 Q850,388.5 880,352.5" fill="none" stroke="url(#chrome-aviator)" stroke-width="16" stroke-linecap="round"/></g></g>
  <rect x="0" y="728" width="1000" height="272" fill="url(#fade-aviator)"/>
</svg>