<svg viewBox="0 0 1000 600" xmlns="http://www.w3.org/2000/svg" aria-hidden="true">

  <defs>
    <radialGradient id="bg-sl" cx="50%" cy="34%" r="80%">
      <stop offset="0%" stop-color="#2c2c30"/>
      <stop offset="42%" stop-color="#161618"/>
      <stop offset="100%" stop-color="#070708"/>
    </radialGradient>
    <radialGradient id="spot-sl" cx="50%" cy="22%" r="42%">
      <stop offset="0%" stop-color="#ffffff" stop-opacity="0.10"/>
      <stop offset="100%" stop-color="#ffffff" stop-opacity="0"/>
    </radialGradient>
    <linearGradient id="chrome-sl" x1="0" y1="0" x2="0" y2="1">
      <stop offset="0%" stop-color="#ffffff"/>
      <stop offset="20%" stop-color="#d6d9dd"/>
      <stop offset="40%" stop-color="#83868c"/>
      <stop offset="51%" stop-color="#42444a"/>
      <stop offset="62%" stop-color="#a3a6ac"/>
      <stop offset="80%" stop-color="#eef0f3"/>
      <stop offset="100%" stop-color="#75777c"/>
    </linearGradient>
    <linearGradient id="rim-sl" x1="0" y1="0" x2="0" y2="1">
      <stop offset="0%" stop-color="#ffffff" stop-opacity="0.9"/>
      <stop offset="100%" stop-color="#ffffff" stop-opacity="0"/>
    </linearGradient>
    <linearGradient id="lens-sl" x1="0.1" y1="0" x2="0.9" y2="1">
      <stop offset="0%" stop-color="#42474f"/>
      <stop offset="44%" stop-color="#16181c"/>
      <stop offset="100%" stop-color="#040405"/>
    </linearGradient>
    <linearGradient id="sheen-sl" x1="0" y1="0" x2="1" y2="1">
      <stop offset="0%" stop-color="#ffffff" stop-opacity="0.55"/>
      <stop offset="32%" stop-color="#ffffff" stop-opacity="0.06"/>
      <stop offset="100%" stop-color="#ffffff" stop-opacity="0"/>
    </linearGradient>
    <linearGradient id="fade-sl" x1="0" y1="0" x2="0" y2="1">
      <stop offset="0%" stop-color="#0a0a0b" stop-opacity="0"/>
      <stop offset="78%" stop-color="#0a0a0b" stop-opacity="0.92"/>
      <stop offset="100%" stop-color="#0a0a0b" stop-opacity="1"/>
    </linearGradient>
    <filter id="soft-sl" x="-40%" y="-40%" width="180%" height="180%"><feGaussianBlur stdDeviation="11"/></filter>
  </defs>
  <g transform="translate(500,300) scale(1.1) translate(-500,-500)" opacity="0.9"><path d="M470.5,422 Q500,388 529.5,422" fill="none" stroke="url(#chrome-sl)" stroke-width="15" stroke-linecap="round"/>
    <clipPath id="clip-sl-0"><path d="M215.5,404 H354.5 Q484.5,404 484.5,534 V566 Q484.5,596 454.5,596 H239.5 Q179.5,596 179.5,536 V440 Q179.5,404 215.5,404 Z"/></clipPath>
    <path d="M215.5,404 H354.5 Q484.5,404 484.5,534 V566 Q484.5,596 454.5,596 H239.5 Q179.5,596 179.5,536 V440 Q179.5,404 215.5,404 Z" fill="url(#lens-sl)"/>
    <g clip-path="url(#clip-sl-0)">
      <ellipse cx="0" cy="0" rx="300" ry="150" fill="#ffffff" opacity="0.13" transform="translate(330,330) rotate(-22)"/>
      <ellipse cx="0" cy="0" rx="120" ry="46" fill="#ffffff" opacity="0.16" transform="translate(420,560) rotate(-22)"/>
      <rect x="0" y="0" width="1000" height="1000" fill="url(#sheen-sl)"/>
    </g>
    <path d="M215.5,404 H354.5 Q484.5,404 484.5,534 V566 Q484.5,596 454.5,596 H239.5 Q179.5,596 179.5,536 V440 Q179.5,404 215.5,404 Z" fill="none" stroke="url(#chrome-sl)" stroke-width="14"/>
    <path d="M215.5,404 H354.5 Q484.5,404 484.5,534 V566 Q484.5,596 454.5,596 H239.5 Q179.5,596 179.5,536 V440 Q179.5,404 215.5,404 Z" fill="none" stroke="#000000" stroke-opacity="0.4" stroke-width="2.5"/>
    <clipPath id="clip-sl-1"><path d="M551.5,404 H690.5 Q820.5,404 820.5,534 V566 Q820.5,596 790.5,596 H575.5 Q515.5,596 515.5,536 V440 Q515.5,404 551.5,404 Z"/></clipPath>
    <path d="M551.5,404 H690.5 Q820.5,404 820.5,534 V566 Q820.5,596 790.5,596 H575.5 Q515.5,596 515.5,536 V440 Q515.5,404 551.5,404 Z" fill="url(#lens-sl)"/>
    <g clip-path="url(#clip-sl-1)">
      <ellipse cx="0" cy="0" rx="300" ry="150" fill="#ffffff" opacity="0.13" transform="translate(330,330) rotate(-22)"/>
      <ellipse cx="0" cy="0" rx="120" ry="46" fill="#ffffff" opacity="0.16" transform="translate(420,560) rotate(-22)"/>
      <rect x="0" y="0" width="1000" height="1000" fill="url(#sheen-sl)"/>
    </g>
    <path d="M551.5,404 H690.5 Q820.5,404 820.5,534 V566 Q820.5,596 790.5,596 H575.5 Q515.5,596 515.5,536 V440 Q515.5,404 551.5,404 Z" fill="none" stroke="url(#chrome-sl)" stroke-width="14"/>
    <path d="M551.5,404 H690.5 Q820.5,404 820.5,534 V566 Q820.5,596 790.5,596 H575.5 Q515.5,596 515.5,536 V440 Q515.5,404 551.5,404 Z" fill="none" stroke="#000000" stroke-opacity="0.4" stroke-width="2.5"/><path d="M187.5,430 Q150,400 120,364" fill="none" stroke="url(#chrome-sl)" stroke-width="16" stroke-linecap="round"/><path d="M812.5,430 Q850,400 880,364" fill="none" stroke="url(#chrome-sl)" stroke-width="16" stroke-linecap="round"/></g>
</svg>