<svg viewBox="0 0 1000 600" xmlns="http://www.w3.org/2000/svg" aria-hidden="true">

  <defs>
    <radialGradient id="bg-sp" cx="50%" cy="34%" r="80%">
      <stop offset="0%" stop-color="#2c2c30"/>
      <stop offset="42%" stop-color="#161618"/>
      <stop offset="100%" stop-color="#070708"/>
    </radialGradient>
    <radialGradient id="spot-sp" cx="50%" cy="22%" r="42%">
      <stop offset="0%" stop-color="#ffffff" stop-opacity="0.10"/>
      <stop offset="100%" stop-color="#ffffff" stop-opacity="0"/>
    </radialGradient>
    <linearGradient id="chrome-sp" x1="0" y1="0" x2="0" y2="1">
      <stop offset="0%" stop-color="#ffffff"/>
      <stop offset="20%" stop-color="#d6d9dd"/>
      <stop offset="40%" stop-color="#83868c"/>
      <stop offset="51%" stop-color="#42444a"/>
      <stop offset="62%" stop-color="#a3a6ac"/>
      <stop offset="80%" stop-color="#eef0f3"/>
      <stop offset="100%" stop-color="#75777c"/>
    </linearGradient>
    <linearGradient id="rim-sp" x1="0" y1="0" x2="0" y2="1">
      <stop offset="0%" stop-color="#ffffff" stop-opacity="0.9"/>
      <stop offset="100%" stop-color="#ffffff" stop-opacity="0"/>
    </linearGradient>
    <linearGradient id="lens-sp" x1="0.1" y1="0" x2="0.9" y2="1">
      <stop offset="0%" stop-color="#42474f"/>
      <stop offset="44%" stop-color="#16181c"/>
      <stop offset="100%" stop-color="#040405"/>
    </linearGradient>
    <linearGradient id="sheen-sp" x1="0" y1="0" x2="1" y2="1">
      <stop offset="0%" stop-color="#ffffff" stop-opacity="0.55"/>
      <stop offset="32%" stop-color="#ffffff" stop-opacity="0.06"/>
      <stop offset="100%" stop-color="#ffffff" stop-opacity="0"/>
    </linearGradient>
    <linearGradient id="fade-sp" x1="0" y1="0" x2="0" y2="1">
      <stop offset="0%" stop-color="#0a0a0b" stop-opacity="0"/>
      <stop offset="78%" stop-color="#0a0a0b" stop-opacity="0.92"/>
      <stop offset="100%" stop-color="#0a0a0b" stop-opacity="1"/>
    </linearGradient>
    <filter id="soft-sp" x="-40%" y="-40%" width="180%" height="180%"><feGaussianBlur stdDeviation="11"/></filter>
  </defs>
  <g transform="translate(500,300) scale(1.1) translate(-500,-500)" opacity="0.9"><path d="M250,382 Q500,350 750,382" fill="none" stroke="url(#chrome-sp)" stroke-width="15" stroke-linecap="round"/>
    <clipPath id="clip-sp-0"><path d="M260,380 H740 Q780,380 780,420 Q770,620 500,638 Q230,620 220,420 Q220,380 260,380 Z"/></clipPath>
    <path d="M260,380 H740 Q780,380 780,420 Q770,620 500,638 Q230,620 220,420 Q220,380 260,380 Z" fill="url(#lens-sp)"/>
    <g clip-path="url(#clip-sp-0)">
      <ellipse cx="0" cy="0" rx="300" ry="150" fill="#ffffff" opacity="0.13" transform="translate(330,330) rotate(-22)"/>
      <ellipse cx="0" cy="0" rx="120" ry="46" fill="#ffffff" opacity="0.16" transform="translate(420,560) rotate(-22)"/>
      <rect x="0" y="0" width="1000" height="1000" fill="url(#sheen-sp)"/>
    </g>
    <path d="M260,380 H740 Q780,380 780,420 Q770,620 500,638 Q230,620 220,420 Q220,380 260,380 Z" fill="none" stroke="url(#chrome-sp)" stroke-width="14"/>
    <path d="M260,380 H740 Q780,380 780,420 Q770,620 500,638 Q230,620 220,420 Q220,380 260,380 Z" fill="none" stroke="#000000" stroke-opacity="0.4" stroke-width="2.5"/><line x1="500" y1="390" x2="500" y2="600" stroke="#000" stroke-opacity="0.28" stroke-width="3"/><path d="M222,404 Q150,380 120,350" fill="none" stroke="url(#chrome-sp)" stroke-width="16" stroke-linecap="round"/><path d="M778,404 Q850,380 880,350" fill="none" stroke="url(#chrome-sp)" stroke-width="16" stroke-linecap="round"/></g>
</svg>