<svg viewBox="0 0 1000 1000" xmlns="http://www.w3.org/2000/svg" role="img" aria-label="square sunglasses">

  <defs>
    <radialGradient id="bg-square" cx="50%" cy="34%" r="80%">
      <stop offset="0%" stop-color="#2c2c30"/>
      <stop offset="42%" stop-color="#161618"/>
      <stop offset="100%" stop-color="#070708"/>
    </radialGradient>
    <radialGradient id="spot-square" cx="50%" cy="22%" r="42%">
      <stop offset="0%" stop-color="#ffffff" stop-opacity="0.10"/>
      <stop offset="100%" stop-color="#ffffff" stop-opacity="0"/>
    </radialGradient>
    <linearGradient id="chrome-square" x1="0" y1="0" x2="0" y2="1">
      <stop offset="0%" stop-color="#ffffff"/>
      <stop offset="20%" stop-color="#d6d9dd"/>
      <stop offset="40%" stop-color="#83868c"/>
      <stop offset="51%" stop-color="#42444a"/>
      <stop offset="62%" stop-color="#a3a6ac"/>
      <stop offset="80%" stop-color="#eef0f3"/>
      <stop offset="100%" stop-color="#75777c"/>
    </linearGradient>
    <linearGradient id="rim-square" x1="0" y1="0" x2="0" y2="1">
      <stop offset="0%" stop-color="#ffffff" stop-opacity="0.9"/>
      <stop offset="100%" stop-color="#ffffff" stop-opacity="0"/>
    </linearGradient>
    <linearGradient id="lens-square" x1="0.1" y1="0" x2="0.9" y2="1">
      <stop offset="0%" stop-color="#42474f"/>
      <stop offset="44%" stop-color="#16181c"/>
      <stop offset="100%" stop-color="#040405"/>
    </linearGradient>
    <linearGradient id="sheen-square" x1="0" y1="0" x2="1" y2="1">
      <stop offset="0%" stop-color="#ffffff" stop-opacity="0.55"/>
      <stop offset="32%" stop-color="#ffffff" stop-opacity="0.06"/>
      <stop offset="100%" stop-color="#ffffff" stop-opacity="0"/>
    </linearGradient>
    <linearGradient id="fade-square" x1="0" y1="0" x2="0" y2="1">
      <stop offset="0%" stop-color="#0a0a0b" stop-opacity="0"/>
      <stop offset="78%" stop-color="#0a0a0b" stop-opacity="0.92"/>
      <stop offset="100%" stop-color="#0a0a0b" stop-opacity="1"/>
    </linearGradient>
    <filter id="soft-square" x="-40%" y="-40%" width="180%" height="180%"><feGaussianBlur stdDeviation="11"/></filter>
  </defs>
  <rect width="1000" height="1000" fill="url(#bg-square)"/>
  <rect width="1000" height="1000" fill="url(#spot-square)"/>
  <ellipse cx="500" cy="738" rx="360" ry="34" fill="#000" opacity="0.6" filter="url(#soft-square)"/>
  <g transform="translate(500,470) scale(1.2) translate(-500,-500)"><path d="M474,406 Q500,372 526,406" fill="none" stroke="url(#chrome-square)" stroke-width="15" stroke-linecap="round"/>
    <clipPath id="clip-square-0"><path d="M198,388 H466 Q488,388 488,410 V590 Q488,612 466,612 H198 Q176,612 176,590 V410 Q176,388 198,388 Z"/></clipPath>
    <path d="M198,388 H466 Q488,388 488,410 V590 Q488,612 466,612 H198 Q176,612 176,590 V410 Q176,388 198,388 Z" fill="url(#lens-square)"/>
    <g clip-path="url(#clip-square-0)">
      <ellipse cx="0" cy="0" rx="300" ry="150" fill="#ffffff" opacity="0.13" transform="translate(330,330) rotate(-22)"/>
      <ellipse cx="0" cy="0" rx="120" ry="46" fill="#ffffff" opacity="0.16" transform="translate(420,560) rotate(-22)"/>
      <rect x="0" y="0" width="1000" height="1000" fill="url(#sheen-square)"/>
    </g>
    <path d="M198,388 H466 Q488,388 488,410 V590 Q488,612 466,612 H198 Q176,612 176,590 V410 Q176,388 198,388 Z" fill="none" stroke="url(#chrome-square)" stroke-width="14"/>
    <path d="M198,388 H466 Q488,388 488,410 V590 Q488,612 466,612 H198 Q176,612 176,590 V410 Q176,388 198,388 Z" fill="none" stroke="#000000" stroke-opacity="0.4" stroke-width="2.5"/>
    <clipPath id="clip-square-1"><path d="M534,388 H802 Q824,388 824,410 V590 Q824,612 802,612 H534 Q512,612 512,590 V410 Q512,388 534,388 Z"/></clipPath>
    <path d="M534,388 H802 Q824,388 824,410 V590 Q824,612 802,612 H534 Q512,612 512,590 V410 Q512,388 534,388 Z" fill="url(#lens-square)"/>
    <g clip-path="url(#clip-square-1)">
      <ellipse cx="0" cy="0" rx="300" ry="150" fill="#ffffff" opacity="0.13" transform="translate(330,330) rotate(-22)"/>
      <ellipse cx="0" cy="0" rx="120" ry="46" fill="#ffffff" opacity="0.16" transform="translate(420,560) rotate(-22)"/>
      <rect x="0" y="0" width="1000" height="1000" fill="url(#sheen-square)"/>
    </g>
    <path d="M534,388 H802 Q824,388 824,410 V590 Q824,612 802,612 H534 Q512,612 512,590 V410 Q512,388 534,388 Z" fill="none" stroke="url(#chrome-square)" stroke-width="14"/>
    <path d="M534,388 H802 Q824,388 824,410 V590 Q824,612 802,612 H534 Q512,612 512,590 V410 Q512,388 534,388 Z" fill="none" stroke="#000000" stroke-opacity="0.4" stroke-width="2.5"/><path d="M184,414 Q150,384 120,348" fill="none" stroke="url(#chrome-square)" stroke-width="16" stroke-linecap="round"/><path d="M816,414 Q850,384 880,348" fill="none" stroke="url(#chrome-square)" stroke-width="16" stroke-linecap="round"/></g>
  <g transform="translate(0,1456) scale(1,-1)" opacity="0.16"><g transform="translate(500,470) scale(1.2) translate(-500,-500)"><path d="M474,406 Q500,372 526,406" fill="none" stroke="url(#chrome-square)" stroke-width="15" stroke-linecap="round"/>
    <clipPath id="clip-square-0"><path d="M198,388 H466 Q488,388 488,410 V590 Q488,612 466,612 H198 Q176,612 176,590 V410 Q176,388 198,388 Z"/></clipPath>
    <path d="M198,388 H466 Q488,388 488,410 V590 Q488,612 466,612 H198 Q176,612 176,590 V410 Q176,388 198,388 Z" fill="url(#lens-square)"/>
    <g clip-path="url(#clip-square-0)">
      <ellipse cx="0" cy="0" rx="300" ry="150" fill="#ffffff" opacity="0.13" transform="translate(330,330) rotate(-22)"/>
      <ellipse cx="0" cy="0" rx="120" ry="46" fill="#ffffff" opacity="0.16" transform="translate(420,560) rotate(-22)"/>
      <rect x="0" y="0" width="1000" height="1000" fill="url(#sheen-square)"/>
    </g>
    <path d="M198,388 H466 Q488,388 488,410 V590 Q488,612 466,612 H198 Q176,612 176,590 V410 Q176,388 198,388 Z" fill="none" stroke="url(#chrome-square)" stroke-width="14"/>
    <path d="M198,388 H466 Q488,388 488,410 V590 Q488,612 466,612 H198 Q176,612 176,590 V410 Q176,388 198,388 Z" fill="none" stroke="#000000" stroke-opacity="0.4" stroke-width="2.5"/>
    <clipPath id="clip-square-1"><path d="M534,388 H802 Q824,388 824,410 V590 Q824,612 802,612 H534 Q512,612 512,590 V410 Q512,388 534,388 Z"/></clipPath>
    <path d="M534,388 H802 Q824,388 824,410 V590 Q824,612 802,612 H534 Q512,612 512,590 V410 Q512,388 534,388 Z" fill="url(#lens-square)"/>
    <g clip-path="url(#clip-square-1)">
      <ellipse cx="0" cy="0" rx="300" ry="150" fill="#ffffff" opacity="0.13" transform="translate(330,330) rotate(-22)"/>
      <ellipse cx="0" cy="0" rx="120" ry="46" fill="#ffffff" opacity="0.16" transform="translate(420,560) rotate(-22)"/>
      <rect x="0" y="0" width="1000" height="1000" fill="url(#sheen-square)"/>
    </g>
    <path d="M534,388 H802 Q824,388 824,410 V590 Q824,612 802,612 H534 Q512,612 512,590 V410 Q512,388 534,388 Z" fill="none" stroke="url(#chrome-square)" stroke-width="14"/>
    <path d="M534,388 H802 Q824,388 824,410 V590 Q824,612 802,612 H534 Q512,612 512,590 V410 Q512,388 534,388 Z" fill="none" stroke="#000000" stroke-opacity="0.4" stroke-width="2.5"/><path d="M184,414 Q150,384 120,348" fill="none" stroke="url(#chrome-square)" stroke-width="16" stroke-linecap="round"/><path d="M816,414 Q850,384 880,348" fill="none" stroke="url(#chrome-square)" stroke-width="16" stroke-linecap="round"/></g></g>
  <rect x="0" y="728" width="1000" height="272" fill="url(#fade-square)"/>
</svg>